<svg viewBox="0 0 1022.38 1045.491" xmlns="http://www.w3.org/2000/svg"><path d="M903.4 512.434c-32.514-.076-61.904-13.396-83.07-34.85L566.365 223.572c-19.923-20.9-32.182-49.26-32.182-80.486 0-2.142.058-4.27.172-6.383l-.013.294c.396-63.965 52.34-115.665 116.362-115.665h.7c31.79.873 60.25 14.442 80.62 35.794l.043.046 256 256c21.198 21.137 34.313 50.37 34.313 82.666 0 64.246-51.9 116.37-116.06 116.734h-.034zM599.88 191.27l253.626 253.626c12.74 12.944 30.45 20.964 50.035 20.964.572 0 1.144-.007 1.714-.02h-.085.604c38.612-.2 69.836-31.548 69.836-70.19 0-19.398-7.87-36.96-20.59-49.663L698.554 89.52c-12.44-13.335-30.118-21.648-49.736-21.648-37.53 0-67.956 30.425-67.956 67.956 0 .657.01 1.31.028 1.963l-.002-.095v1.396c-.08 1.25-.125 2.71-.125 4.18 0 18.607 7.28 35.515 19.145 48.03l-.03-.03zm-228.445 854.063c-31.506-.08-60.04-12.73-80.866-33.203L34.583 756.146C13.3 734.996.126 705.704.126 673.336c0-64.083 51.637-116.106 115.573-116.73h.058c1.617-.08 3.51-.127 5.416-.127 31.107 0 59.353 12.25 80.177 32.19l-.04-.04.558.558 251.345 256.326c21.45 21.177 34.734 50.58 34.734 83.084 0 64.394-52.138 116.61-116.502 116.736h-.012zm-48.36-66.374c12.528 12.27 29.7 19.84 48.64 19.84 38.405 0 69.54-31.133 69.54-69.538 0-.103 0-.206-.002-.31v.017c.002-.106.002-.23.002-.354 0-19.587-8.012-37.303-20.938-50.048l-.334-.334-251.066-256c-12.426-11.783-29.255-19.028-47.776-19.028-1.204 0-2.4.03-3.59.09l.167-.006h-1.35c-38.612.2-69.836 31.55-69.836 70.19 0 19.4 7.87 36.96 20.59 49.664zm324.933-741.15l158.64 158.64-432.802 432.8-158.64-158.638zm92.813 158.64l-92.815-92.814L281.03 670.612l92.813 92.814z"/></svg>